<?xml version="1.0" encoding="UTF-8" standalone="no"?>
<svg
   width="2028"
   height="3160"
   viewBox="0 0 2028 3160"
   version="1.1"
   id="svg1"
   sodipodi:docname="moonlander.svg"
   inkscape:export-filename="moonlander.svg"
   inkscape:export-xdpi="96"
   inkscape:export-ydpi="96"
   inkscape:version="1.4.3 (0d15f75, 2025-12-25)"
   xmlns:inkscape="http://www.inkscape.org/namespaces/inkscape"
   xmlns:sodipodi="http://sodipodi.sourceforge.net/DTD/sodipodi-0.dtd"
   xmlns="http://www.w3.org/2000/svg"
   xmlns:svg="http://www.w3.org/2000/svg">
  <defs
     id="defs1" />
  <sodipodi:namedview
     id="namedview1"
     pagecolor="#ffffff"
     bordercolor="#000000"
     borderopacity="0.25"
     inkscape:showpageshadow="2"
     inkscape:pageopacity="0.0"
     inkscape:pagecheckerboard="0"
     inkscape:deskcolor="#d1d1d1"
     inkscape:zoom="0.25791139"
     inkscape:cx="1054.6258"
     inkscape:cy="1645.9141"
     inkscape:window-width="1920"
     inkscape:window-height="1017"
     inkscape:window-x="-8"
     inkscape:window-y="-8"
     inkscape:window-maximized="1"
     inkscape:current-layer="svg1" />
  <path
     style="fill:#000000"
     d="m 1402,3153.4273 c -18.7657,-2.0603 -54.3185,-10.4464 -79.8442,-18.8333 -46.3918,-15.2428 -86.6492,-36.4271 -126.5263,-66.581 -14.7137,-11.126 -23.8554,-19.133 -41.5,-36.3488 -20.7729,-20.2682 -24.0955,-24.0111 -40.498,-45.6219 -25.5199,-33.6232 -31.6681,-43.1521 -44.869,-69.5423 -4.3215,-8.6393 -6.1661,-13.8973 -8.5949,-24.5 l -3.0925,-13.5 -1.5499,-67.5 c -2.9589,-128.8705 -13.2147,-258.2694 -29.9592,-378 -24.6561,-176.3024 -60.57632,-342.4751 -108.18889,-500.5 l -18.68047,-62 -0.43338,-68 c -0.41867,-65.6926 -0.3654,-68.2438 1.56974,-75.1842 2.53661,-9.0976 8.70682,-18.3758 14.46411,-21.7498 7.8264,-4.5865 12.60096,-5.7132 27.13818,-6.4039 l 13.9353,-0.6621 -23.18443,-19.5 c -12.75143,-10.725 -23.58843,-19.5 -24.08222,-19.5 -0.78065,0 -38.94859,44.9432 -72.35996,85.2048 -10.31318,12.4276 -11.20972,13.2425 -15.23362,13.8459 -2.35154,0.3527 -4.97709,0.4855 -5.83456,0.2952 -0.85746,-0.1902 -15.7603,-13.1182 -33.11741,-28.7289 L 750,1701.734 v -5.3893 c 0,-4.8515 0.3837,-5.8113 3.84449,-9.617 2.11447,-2.3253 7.60195,-8.7277 12.19441,-14.2277 8.82624,-10.5705 24.50855,-29.2532 49.62049,-59.1143 l 15.23338,-18.1143 -2.90789,-2.7859 -2.90789,-2.7859 0.53719,3.4002 c 0.6114,3.8699 0.59535,3.8939 -14.72732,22.0251 -5.28722,6.2563 -13.58022,16.1001 -18.42889,21.8751 -4.84867,5.775 -17.96026,21.3853 -29.13686,34.6895 C 752.1445,1684.9938 743,1696.3108 743,1696.8385 c 0,0.5277 17.325,16.5318 38.5,35.5646 21.175,19.0328 38.5,35.3091 38.5,36.1695 0,0.8604 -3.88463,6.2874 -8.63251,12.0601 -6.89692,8.3855 -49.16804,47.9533 -210.25,196.8039 C 490.22787,2079.9061 396.125,2166.4104 392,2169.6683 c -38.34782,30.2875 -91.07113,35.8744 -134.21726,14.2227 -5.35432,-2.6869 -13.17424,-7.3219 -17.37761,-10.3 C 229.29281,2165.7179 49.96771,2014.9719 40.453611,2005.5058 23.500724,1988.6384 10.443456,1962.9678 6.3713912,1938.5 c -1.639034,-9.8484 -1.6490349,-29.8797 -0.021094,-42.25 0.9523554,-7.2367 0.9537712,-9.25 0.0065,-9.25 -0.8960196,0 -1.14307,-3.1847 -0.9502741,-12.25 0.2279312,-10.7173 6.4131561,-49.6596 49.4359741,-311.25 48.883668,-297.2259 53.440178,-324.5729 55.275588,-331.75 0.77283,-3.022 1.42374,-3.75 3.35307,-3.75 2.47597,0 2.8874,-0.7302 3.94407,-7 0.41834,-2.4822 3.27904,-6.6781 9.83732,-14.4287 5.0861,-6.0107 9.69745,-11.0652 10.24745,-11.2322 0.55,-0.167 19.675,14.3311 42.5,32.218 l 41.5,32.5215 3.28947,-3.7893 c 5.44923,-6.2773 7.29613,-9.1184 6.31978,-9.7218 -0.50982,-0.3151 -2.00535,0.7087 -3.3234,2.2752 -1.82163,2.1648 -3.60286,3.008 -7.42597,3.5152 l -5.02951,0.6672 -30.94719,-24.2626 c -17.02096,-13.3444 -32.2468,-25.2874 -33.83521,-26.5402 -2.37534,-1.8733 -2.96361,-3.2047 -3.31386,-7.5 -0.37636,-4.6153 -0.12547,-5.5028 2.15852,-7.6358 2.49476,-2.3298 2.51696,-2.4512 0.64022,-3.5 -1.06929,-0.5976 -15.01412,-12.1061 -30.98851,-25.5746 C 91.965933,1135.1814 90,1133.3038 90,1130.2737 c 0,-2.7566 2.84687,-6.6433 18.75,-25.5984 32.23079,-38.4163 36.66577,-43.7227 39.75,-47.5607 7.38409,-9.1885 8.54411,-10.2475 11.80508,-10.7767 3.15794,-0.5124 4.89638,0.776 33.2635,24.6537 16.46228,13.857 30.07488,25.583 30.25023,26.0578 0.17534,0.4749 1.63116,-0.6312 3.23515,-2.4581 l 2.91634,-3.3215 0.29446,-391.8849 0.29447,-391.8849 3.09728,-11 c 11.29374,-40.10974 36.5319,-69.58704 73.19427,-85.48838 19.53039,-8.4708 8.34403,-7.88449 152.39922,-7.98767 87.34203,-0.0626 127.75,0.23548 127.75,0.94227 0,0.7034 26.52519,1.03378 83,1.03378 54.66667,0 83,-0.34137 83,-1 0,-0.66489 125.5,-1 374.5,-1 249,0 374.5,0.33511 374.5,1 0,0.65859 28.1667,1 82.5,1 55.9663,0 82.5,-0.33146 82.5,-1.0306 0,-0.70258 40.6467,-1.00019 127.7086,-0.93505 143.421,0.10729 132.9751,-0.41886 152.3248,7.67256 36.1126,15.1011 63.7434,46.94339 73.5783,84.79309 l 2.3385,9 V 990 1675.5 l -2.3306,9 c -1.2818,4.95 -3.0477,10.6875 -3.9241,12.75 -1.2767,3.0046 -1.3275,3.75 -0.2553,3.75 0.736,0 2.2841,0.7875 3.4401,1.75 2.0796,1.7315 2.107,2.3515 2.5992,58.75 0.8086,92.6489 -1.1887,159.0576 -7.9398,264 -5.2807,82.0857 -6.1348,92.0555 -15.1213,176.5 -8.971,84.2992 -10.3086,94.759 -23.0186,180 -12.889,86.4419 -14.2806,94.5357 -31.0342,180.5 -16.2327,83.2919 -19.1358,96.6708 -38.95,179.5 -17.3703,72.6131 -22.9016,94.1227 -29.3158,114 -30.312,93.9359 -94.2003,176.7891 -178.1499,231.0324 -42.1706,27.2482 -86.773,46.2337 -137.2933,58.4405 -35.0299,8.464 -45.8345,9.4499 -102.1566,9.3217 -29.5931,-0.067 -50.1017,-0.555 -57.5,-1.3673 z m 112.5,-2.901 c 45.5139,-5.2503 96.9762,-20.7559 139.5139,-42.0356 89.6207,-44.8334 159.8872,-117.1905 201.9812,-207.9907 16.384,-35.3416 21.2175,-51.6735 46.6008,-157.4588 19.8273,-82.6305 22.803,-96.2935 38.9858,-179 16.9004,-86.3741 18.0109,-92.8306 31.3968,-182.5412 13.2775,-88.9837 14.2898,-96.9083 23.4406,-183.5 9.0718,-85.8452 9.8482,-94.9889 15.0941,-177.7738 5.2776,-83.2852 5.6203,-91.3746 7.4979,-177 1.0821,-49.3494 1.9723,-90.0637 1.9782,-90.4762 0.01,-0.4125 -243.9596,-0.75 -542.1455,-0.75 H 936.68756 l 0.60124,55.75 0.60125,55.75 18.12457,61 c 24.45556,82.3075 45.17728,163.9999 64.04088,252.4725 30.15,141.4068 49.3204,268.9162 62.3971,415.0275 5.7909,64.7032 6.8683,80.727 10.0187,149 3.2739,70.9516 3.5299,81.5497 3.5293,146.1249 l -6e-4,69.625 18.8578,24.875 c 17.4837,23.0625 20.521,26.505 41.6823,47.2432 18.5966,18.2248 26.4491,25.0912 42.3922,37.069 26.9313,20.2329 53.8677,36.371 81.0677,48.569 42.7019,19.15 89.9834,32.0876 135.1778,36.9887 29.8354,3.2355 65.9294,2.8835 99.3222,-0.9685 z m -419.7508,-262.208 c -0.1588,-12.5501 -0.2888,-2.5683 -0.2891,22.1817 -2e-4,24.75 0.1297,35.0182 0.2887,22.8183 0.159,-12.2 0.1592,-32.45 4e-4,-45 z m -2.1155,-10.5683 c -1.0015,-108.9998 -4.4946,-183.4722 -13.2153,-281.75 -12.9443,-145.8773 -32.5668,-277.0532 -62.3786,-417 -18.03322,-84.6538 -38.56508,-165.8241 -62.7312,-248 -10.27066,-34.925 -18.76673,-63.6375 -18.88015,-63.8056 -0.18656,-0.2764 -31.53481,3.9876 -32.21684,4.3822 -0.15861,0.092 7.81918,27.2047 17.72841,60.251 47.77027,159.3089 83.37958,324.6312 108.05698,501.6724 16.7372,120.0767 26.4965,242.8068 30.0182,377.5 l 1.8694,71.5 2.9938,11.1409 c 2.9253,10.886 8.107,22.4497 17.8607,39.8591 5.696,10.1667 10.3133,17.5 11.0186,17.5 0.302,0 0.2462,-32.9625 -0.124,-73.25 z M 334.6368,2187.457 c 17.08349,-2.7325 37.16554,-11.6444 51.1132,-22.6829 5.88491,-4.6574 7.53011,-6.7741 5.2651,-6.7741 -0.54169,0 -4.1205,2.4227 -7.9529,5.3838 -18.76498,14.4986 -38.28858,21.3807 -65.5622,23.1108 -23.1622,1.4693 -50.25946,-6.5681 -70.39864,-20.8813 -3.51925,-2.5012 -6.78909,-4.3063 -7.26631,-4.0114 -1.33404,0.8245 -0.32837,1.8709 6.42348,6.6836 24.60881,17.5411 55.99928,24.3505 88.37827,19.1715 z m -1.28654,-6.1123 c 17.22697,-2.7241 33.27288,-9.8482 48.25,-21.4222 12.5375,-9.6887 410.04288,-377.5771 416.88892,-385.8277 l 6.19971,-7.4717 -37.34445,-33.5349 c -20.53944,-18.4442 -37.34131,-34.2219 -37.33747,-35.0615 0.004,-0.8397 10.88695,-14.5277 24.18472,-30.4179 l 24.17775,-28.8912 -2.2955,-1.8588 c -1.26253,-1.0223 -2.89926,-1.8588 -3.63717,-1.8588 -0.73792,0 -4.40056,-3.0724 -8.13922,-6.8275 -9.35449,-9.3957 -474.78473,-400.0298 -478.11809,-401.283 -1.4737,-0.554 -5.15446,-3.6546 -8.17946,-6.8902 l -5.5,-5.883 -24,28.9182 c -14.99424,18.0668 -24.67571,28.927 -25.80074,28.9418 -0.99041,0.013 -18.96485,-13.3638 -39.94321,-29.7263 -20.97835,-16.3625 -38.68051,-30.0819 -39.33812,-30.4875 -0.75144,-0.4635 -3.30757,1.668 -6.88017,5.7373 l -5.68453,6.4747 -3.89059,24.2628 c -2.13983,13.3445 -4.37341,27.4127 -4.96352,31.2627 -3.00447,19.6018 -92.714208,563.2734 -97.189241,589 -5.02832,28.9074 -5.219969,30.692 -5.262179,49 -0.03874,16.8046 0.222752,19.9822 2.263085,27.5 5.168256,19.043 15.539662,37.1175 29.548377,51.4947 9.19773,9.4397 184.794958,156.9834 197.140838,165.6456 15.44635,10.8374 32.10392,17.5318 50.17736,20.1652 10.31732,1.5033 20.95409,1.2086 34.6729,-0.9608 z M 237,2159.1636 c 0,-1.7441 -179.243333,-151.3203 -180.194039,-150.3696 -0.605895,0.6059 31.800535,28.3882 88.743329,76.0802 49.33376,41.3192 90.09216,75.1258 90.57423,75.1258 0.48206,0 0.87648,-0.3764 0.87648,-0.8364 z m 361.5,-190.2057 c 107.8,-99.6998 196,-181.6516 196,-182.1151 0,-0.4635 -0.35507,-0.8618 -0.78905,-0.8851 -0.43397,-0.023 -88.85897,81.3321 -196.5,180.7895 -107.64102,99.4575 -197.46973,182.4292 -199.61934,184.3815 -2.50335,2.2736 -3.63035,3.9996 -3.13497,4.8011 0.55867,0.904 1.78268,0.2864 4.40839,-2.2241 1.99923,-1.9115 91.83497,-85.0481 199.63497,-184.7478 z m -544.193926,37.4027 c 0.351674,-0.3517 -2.710579,-4.2005 -6.805007,-8.5529 -22.942338,-24.3878 -34.260685,-55.612 -31.964017,-88.1799 0.572811,-8.1227 0.454003,-9.7923 -0.670434,-9.4211 -2.301163,0.7596 -3.364944,17.5019 -1.893029,29.7933 3.319151,27.7171 14.428039,50.6929 34.933046,72.25 4.584579,4.8198 5.257798,5.2522 6.399441,4.1106 z M 711.5,1870.5713 c 69.61663,-64.2465 95.94793,-88.8559 85,-79.4415 -7.27805,6.2586 -203.5,188.003 -203.5,188.4856 0,0.296 8.6625,-7.5063 19.25,-17.3385 10.5875,-9.8322 55.25,-51.0997 99.25,-91.7056 z m -694.402234,1.7212 c 2.421229,-6.4392 4.552234,-12.0642 4.735567,-12.5 0.183334,-0.4359 -0.318027,-0.7925 -1.114135,-0.7925 -0.93566,0 -2.909866,4.0171 -5.583334,11.361 -4.272869,11.7373 -4.731334,13.639 -3.288098,13.639 0.466272,0 2.828772,-5.2684 5.25,-11.7075 z m -4.733741,-4.5425 c 3.326178,-9.0998 6.38587,-19.6862 7.586833,-26.25 2.852299,-15.5891 90.413972,-547.8432 93.114252,-566.0061 1.9736,-13.275 2.12737,-16.6781 1.33293,-29.5 L 113.5,1231.5 l -1.81989,9.5 c -1.64438,8.5839 -55.45579,335.4773 -90.702614,551 -7.690519,47.025 -14.1953278,86.7375 -14.4551294,88.25 -0.2598016,1.5125 -0.3059043,2.75 -0.1024505,2.75 0.2034539,0 2.878303,-6.8625 5.9441089,-15.25 z M 924,1865.0783 l 10.5,-1.6415 -0.17422,-11.9684 c -0.0958,-6.5826 -0.48636,-31.6559 -0.86787,-55.7184 l -0.69365,-43.75 -12.13213,-0.011 c -6.67267,-0.01 -13.81963,-0.2899 -15.88213,-0.6308 l -3.75,-0.6199 v 37.4696 c 0,20.6083 0.29729,47.0155 0.66064,58.6827 l 0.66064,21.2132 5.58936,-0.692 c 3.07415,-0.3806 10.31436,-1.4307 16.08936,-2.3335 z m -24.25078,-91.76 c -0.15878,-12.5501 -0.28887,-2.5683 -0.28909,22.1817 -2.1e-4,24.75 0.12969,35.0182 0.28869,22.8183 0.15899,-12.2 0.15917,-32.45 4e-4,-45 z M 28,1831.3534 c 0,-0.3556 20.025,-122.3027 44.5,-270.9936 24.475,-148.6908 44.5,-271.2499 44.5,-272.3534 0,-2.9755 -1.75503,-2.4313 -2.39813,0.7436 -0.30637,1.5125 -20.367565,123.35 -44.580428,270.75 -24.212863,147.4 -44.256523,269.0125 -44.541467,270.25 -0.362251,1.5732 -0.06118,2.25 1.000973,2.25 C 27.316427,1832 28,1831.709 28,1831.3534 Z m 774.21991,-75.0901 c -5.34595,-4.8052 -21.75944,-19.6552 -36.47442,-33 C 749.18807,1708.2476 738.21328,1699 736.95051,1699 c -1.35477,0 10.2759,11.0897 34.60979,33 20.46977,18.431 37.47346,33 38.51489,33 1.2201,0 -1.49518,-3.02 -7.85528,-8.7367 z m 33.09215,-16.7468 c 6.88457,-8.2409 12.29071,-15.3502 12.01364,-15.7985 -0.73815,-1.1944 -2.66753,0.6705 -11.10775,10.7362 -4.17173,4.9752 -10.00454,11.8266 -12.96182,15.2255 -4.55245,5.2321 -5.00003,6.0754 -2.91917,5.5 1.50416,-0.416 7.31417,-6.493 14.9751,-15.6632 z m -6.13865,-2.2145 c 6.77962,-7.9889 12.74848,-15.1091 13.26413,-15.8227 0.66645,-0.9223 -0.49017,-2.8856 -4,-6.7896 -21.00099,-23.36 -36.4735,-41.5006 -41.63941,-48.8198 l -6.09863,-8.6407 -17.91339,21.4445 c -9.85237,11.7944 -17.77225,21.8208 -17.59975,22.2808 0.1725,0.46 13.58864,12.7895 29.81364,27.3989 25.05856,22.5634 29.67666,26.3301 30.67341,25.0182 0.64537,-0.8494 6.72037,-8.0807 13.5,-16.0696 z M 933,1725.3887 v -22.6113 l -3.75,0.6552 c -2.0625,0.3603 -6.56608,2.0153 -10.00795,3.6778 -5.06979,2.4488 -6.99605,4.1097 -10.14547,8.7474 -4.74119,6.9817 -8.09658,17.7566 -8.09658,26 V 1748 h 16 16 z m 1087.8083,2.5524 c -0.3073,-19.9958 -0.3161,-20.0648 -2.776,-21.9186 -1.3573,-1.0228 -3.7761,-2.1213 -5.375,-2.441 -1.599,-0.3198 -244.276,-0.5815 -539.2823,-0.5815 H 937 v 22.5 22.5 h 542.0583 542.0583 z m -1141.30085,-41.037 c 16.28345,-19.411 28.47061,-34.7795 28.29657,-35.6832 -0.26956,-1.3998 -57.69031,65.938 -58.62931,68.755 -1.33702,4.011 5.24378,-3.164 30.33274,-33.0718 z m -2.08937,-6.9179 c 17.00494,-20.3424 31.40494,-36.9785 32,-36.969 0.59505,0.01 16.15692,12.6032 34.58192,27.9861 l 33.5,27.969 89.4621,-0.2361 89.4622,-0.2362 3.5416,-14.5 3.5416,-14.5 24.2125,-0.2677 24.2124,-0.2677 1.002,-3.7323 c 0.5511,-2.0528 1.8215,-7.3323 2.823,-11.7323 l 1.8209,-8 H 1471.0391 1724.5 l 0.2663,26.75 0.2664,26.75 h 137.8711 137.8712 l 2.6272,-6.25 c 1.445,-3.4375 3.622,-10.3 4.8379,-15.25 l 2.2106,-9 0.5247,-602 0.5246,-602 2.25,-0.31955 2.25,-0.31955 V 399.5 335.1391 l -2.25,-0.31955 c -2.124,-0.30165 -2.2918,-0.9357 -2.9958,-11.31955 -0.9914,-14.62334 -4.1426,-29.20698 -8.4271,-39 -17.7072,-40.47409 -51.5494,-64.90917 -96.1831,-69.4471 -14.5372,-1.47802 -1543.75077,-1.47802 -1558.28805,0 -28.01552,2.84835 -51.46488,13.64302 -70.46537,32.438 -20.9875,20.76049 -31.99896,45.9647 -33.97214,77.7591 -0.54071,8.71269 -0.80794,9.75 -2.51176,9.75 -1.85586,0 -1.90668,1.71901 -1.90668,64.5 0,63.83333 0.0207,64.5 2,64.5 1.99575,0 1.99999,0.66552 1.99655,313.25 l -0.003,313.25 -9.26122,11 c -5.09367,6.05 -18.51564,22.047 -29.82661,35.5489 l -20.56538,24.5489 21.22612,13.1424 c 18.27135,11.3128 49.08059,28.0189 49.92212,27.0699 0.15122,-0.1706 11.41265,-13.5851 25.02541,-29.8101 13.61276,-16.225 25.5578,-29.6394 26.54455,-29.8099 2.02975,-0.3505 537.22019,447.8405 537.76864,450.3502 0.1797,0.8223 -11.01122,15.0284 -24.86872,31.5691 -22.32704,26.6502 -25.08279,30.3198 -24.20586,32.2323 1.48905,3.2476 11.97871,17.0142 20.69361,27.1583 10.1541,11.8193 29.91835,33.4707 30.55424,33.4716 0.275,4e-4 14.41313,-16.643 31.41808,-36.9854 z m -12.4525,-46.986 c -15.10607,-12.6498 -27.61444,-23.6923 -27.79639,-24.5388 -0.4519,-2.1025 7.89996,-12.3553 10.11243,-12.4141 2.36464,-0.063 56.90366,45.8132 56.51812,47.5407 -0.43079,1.9303 -9.1032,12.3057 -10.33416,12.3634 -0.56893,0.027 -13.39393,-10.3013 -28.5,-22.9512 z m 27.50664,16.0969 C 887.29457,1644.1013 842.75466,1607 841.93492,1607 c -0.5142,0 -0.90611,0.3375 -0.87091,0.75 0.11033,1.2926 50.35805,43.0779 51.90821,43.1662 1.09955,0.063 0.97298,-0.3979 -0.5,-1.8191 z m 6.37374,-6.5865 c -8.03135,-7.4749 -51.14208,-42.5471 -51.65984,-42.0271 -0.37736,0.3789 0.88888,1.9608 2.81388,3.5152 1.925,1.5544 13.625,11.3482 26,21.7639 12.375,10.4156 22.88068,18.7268 23.34596,18.4692 0.46528,-0.2577 0.24028,-1.0322 -0.5,-1.7212 z M 263.5,1128.3259 c -18.11133,-15.1494 -27,-23.2163 -27,-24.5038 0,-2.6253 7.57213,-11.7108 9.81136,-11.7723 2.47953,-0.068 56.68864,44.9434 56.68864,47.0704 0,2.6105 -8.20783,11.8479 -10.5,11.817 -1.11827,-0.015 -13.9034,-9.9836 -29,-22.6113 z m 29.33333,17.7996 c -0.71577,-1.878 -51.80093,-43.9869 -52.32828,-43.1337 -0.54019,0.8741 50.13197,43.8494 51.82828,43.9559 0.45834,0.029 0.68334,-0.3412 0.5,-0.8222 z m 5.28929,-7.4777 c -1.85307,-2.2329 -50.06385,-42.1179 -51.3929,-42.5177 -2.10659,-0.6337 1.35891,2.4951 25.92732,23.4076 13.11363,11.1623 24.46056,20.3327 25.2154,20.3787 1.04127,0.063 1.10164,-0.2427 0.25018,-1.2686 z m 1411.39008,561.3728 c -0.3923,-0.6348 -84.4922,-0.9794 -239.0127,-0.9794 -154.5205,0 -238.6204,0.3446 -239.0127,0.9794 -0.3944,0.6382 82.878,0.9794 239.0127,0.9794 156.1347,0 239.4071,-0.3412 239.0127,-0.9794 z M 971,1698.5711 C 971,1697.9838 913.27135,1650 912.56483,1650 c -2.67493,0 3.34355,5.675 27.24361,25.6887 C 963.29933,1695.3598 971,1701.009 971,1698.5711 Z m 194.399,-10.1303 c 2.4606,-9.8196 2.6163,-12.4408 0.7388,-12.4408 -0.4093,0 -1.7706,4.3875 -3.0252,9.75 -1.2546,5.3625 -2.4985,10.5375 -2.7642,11.5 -0.2987,1.0818 0.068,1.75 0.9608,1.75 1.0004,0 2.2567,-3.2436 4.0898,-10.5592 z m 62.505,-7.1908 -0.096,-17.75 -2.5186,9.75 -2.5187,9.75 h -10.8854 c -7.33,0 -10.8854,0.3637 -10.8854,1.1135 0,0.7419 -1.0846,0.8657 -3.25,0.371 -1.7875,-0.4083 -7.7202,-0.7969 -13.1839,-0.8635 l -9.9339,-0.121 -1.7932,7 c -0.9863,3.85 -1.8036,7.3375 -1.8162,7.75 -0.013,0.4125 12.8022,0.75 28.4772,0.75 H 1228 Z M 1721,1675.441 c 0,-15.4514 -0.3441,-23.3463 -1,-22.941 -0.6196,0.383 -1,9.3437 -1,23.559 0,14.6273 0.3624,22.941 1,22.941 0.6384,0 1,-8.5197 1,-23.559 z m 289.3786,15.754 c 4.0011,-12.6657 5.4014,-19.1726 6.1214,-28.445 0.5666,-7.2952 0.4381,-8.75 -0.7727,-8.75 -1.1024,0 -1.6195,2.0612 -2.1466,8.557 -0.8482,10.4539 -3.8429,24.5559 -6.5614,30.898 -2.4098,5.6219 -2.402,5.545 -0.5628,5.545 0.9403,0 2.3303,-2.7661 3.9221,-7.805 z M 1246,1679 v -18 h -7.5 -7.5 v 18 18 h 7.5 7.5 z m 6,-1.5 c 0,-12.3333 -0.3675,-19.5 -1,-19.5 -0.6325,0 -1,7.1667 -1,19.5 0,12.3333 0.3675,19.5 1,19.5 0.6325,0 1,-7.1667 1,-19.5 z m 433,1.5 v -18 H 1470.5 1256 v 18 18 h 214.5 214.5 z m 6,-1.5 c 0,-12.3333 -0.3675,-19.5 -1,-19.5 -0.6325,0 -1,7.1667 -1,19.5 0,12.3333 0.3675,19.5 1,19.5 0.6325,0 1,-7.1667 1,-19.5 z m 18,1.5 v -18 h -7 -7 v 18 18 h 7 7 z m -949.39035,-8.5296 C 786.05309,1638.7874 783.54767,1642 781.8132,1642 780.54048,1642 736,1694.0596 736,1695.5472 c 0,2.4749 5.41177,-3.2732 23.60965,-25.0768 z m 12.31509,3.7384 c 8.36797,-10.0601 15.05847,-18.7592 14.8678,-19.3312 -0.19067,-0.572 -5.7345,5.3737 -12.31961,13.2128 -6.58511,7.839 -14.11043,16.7206 -16.72293,19.7368 -2.6125,3.0162 -4.75,6.189 -4.75,7.0506 0,2.0558 0.24502,1.7882 18.92474,-20.669 z M 1214,1674.5 c -1.0375,-1.2502 -4.9093,-1.5 -23.2449,-1.5 -19.4422,0 -21.8553,0.1744 -20.7551,1.5 1.0375,1.2502 4.9093,1.5 23.2449,1.5 19.4422,0 21.8553,-0.1744 20.7551,-1.5 z m 364.3299,-19.2499 c -58.9435,-0.1425 -155.6935,-0.1425 -215,-10e-5 -59.3064,0.1425 -11.0799,0.2591 107.1701,0.2591 118.25,0 166.7735,-0.1166 107.8299,-0.259 z m -740.87683,-60.1304 c -0.82382,-0.8238 -4.22149,2.9594 -26.83545,29.8801 -11.75959,13.9992 -21.16458,26.0172 -20.89996,26.7068 0.26461,0.6896 11.22891,-11.6448 24.3651,-27.4097 13.1362,-15.7649 23.65284,-28.8946 23.37031,-29.1772 z M 1718,1649.5 c 1.106,-1.3326 -26.4342,-1.5 -246.8462,-1.5 -220.1145,0 -248.0261,0.1692 -247.5154,1.5 0.5095,1.3277 28.8615,1.5 246.8461,1.5 217.6873,0 246.4151,-0.1741 247.5155,-1.5 z M 2017,1059 c 0,-394 -0.3345,-592 -1,-592 -0.6655,0 -1,198 -1,592 0,394 0.3345,592 1,592 0.6655,0 1,-198 1,-592 z m 1.75,-296.25 c -0.1393,-162.9375 -0.2533,-29.625 -0.2533,296.25 0,325.875 0.114,459.1875 0.2533,296.25 0.1393,-162.9375 0.1393,-429.5625 0,-592.5 z m 2,0 c -0.1393,-162.9375 -0.2533,-29.625 -0.2533,296.25 0,325.875 0.114,459.1875 0.2533,296.25 0.1393,-162.9375 0.1393,-429.5625 0,-592.5 z m -424.5,883.5 c -68.8875,-0.1417 -181.6125,-0.1417 -250.5,0 -68.8875,0.1418 -12.525,0.2578 125.25,0.2578 137.775,0 194.1375,-0.116 125.25,-0.2578 z m -801.6975,-17.3273 c 1.62113,-1.9676 7.38757,-8.8675 12.81432,-15.3332 5.45704,-6.5018 9.47941,-12.13 9,-12.5929 -0.47735,-0.461 -4.51323,3.5079 -8.98236,8.8332 -21.08983,25.13 -24.18939,29.0686 -23.14923,29.4153 1.05977,0.3532 3.68662,-2.2749 10.31727,-10.3224 z m -4.85799,-3.56 c 4.84302,-5.8505 12.46632,-14.9327 16.94067,-20.1827 8.00807,-9.3962 8.10319,-9.5713 6.0876,-11.2034 -1.97442,-1.5988 -2.26116,-1.4225 -8.02385,4.9327 -7.02165,7.7436 -25.92421,30.0058 -27.08901,31.9037 -0.65652,1.0697 1.71652,5.187 2.98958,5.187 0.15924,0 4.25199,-4.7868 9.09501,-10.6373 z m 5.99439,-27.1319 c -1.14049,-1.2481 -2.38138,-2.1481 -2.75753,-2 -0.37614,0.1481 -5.24505,5.6692 -10.81979,12.2692 l -10.13589,12 2.57109,2.2527 2.57109,2.2528 10.32233,-12.2528 10.32232,-12.2527 z m -19.4886,11.0192 c 18.13076,-21.9829 22.19272,-27.3862 21.11865,-28.0924 C 796.76883,1580.7959 690.45966,1491.625 561.07636,1383 431.69305,1274.375 325.53384,1185.5413 325.16699,1185.5918 c -0.82253,0.1133 -13.68249,14.4369 -25.46368,28.3619 -8.45664,9.9954 -8.72724,10.4663 -7,12.1816 1.53174,1.5212 471.47141,396.6053 471.97656,396.7966 0.0989,0.037 5.28313,-6.1194 11.52043,-13.6819 z m 31.277,-19.227 c 2.69617,-2.7373 4.702,-5.0998 4.45741,-5.25 -0.24458,-0.1501 -1.83064,-1.5235 -3.52456,-3.0519 l -3.07986,-2.7788 -4.11107,5.8607 -4.11106,5.8607 2.16814,2.1682 c 1.19248,1.1924 2.42256,2.1681 2.73351,2.1681 0.31096,0 2.77133,-2.2396 5.46749,-4.977 z m 28.49997,-0.4 C 834.61477,1588.3157 717.625,1490.1318 576,1371.4367 434.375,1252.7415 316.12914,1153.6244 313.23141,1151.1763 c -4.43141,-3.7437 -5.13274,-4.0717 -4.41367,-2.0637 1.13233,3.1621 524.99759,442.8481 527.65953,442.8707 1.82702,0.015 1.78902,-0.1639 -0.5,-2.3603 z m -34.1719,-13.0979 c -0.21254,-0.8967 -290.31451,-245.0823 -314.06295,-264.3541 -1.0653,-0.8645 -2.19529,-1.0169 -3.23302,-0.4362 -1.25269,0.701 32.47938,29.4952 157.06016,134.0685 87.26052,73.2466 159.07977,132.9134 159.59833,132.5929 0.51857,-0.3205 0.80543,-1.1624 0.63748,-1.8711 z M 771,1542.5352 c 0,-0.5333 -0.57258,-1.0183 -76.07066,-64.4333 -31.03614,-26.0689 -57.66684,-48.5406 -59.17934,-49.9371 -1.5125,-1.3964 -2.75,-2.2549 -2.75,-1.9078 0,0.528 28.56926,24.7274 119.95462,101.6066 6.30003,5.3 12.82503,10.8607 14.5,12.3571 3.18066,2.8415 3.54538,3.0796 3.54538,2.3145 z M 478.45714,1299.1468 c -0.52643,-0.4771 -16.70714,-14.0427 -35.95714,-30.1457 -19.25,-16.1031 -35.80151,-29.9734 -36.78113,-30.8229 -1.60658,-1.3932 -1.93398,-1.3917 -3.34093,0.015 -1.68237,1.6824 -3.64603,-0.072 54.51198,48.696 17.60511,14.7626 19.53419,16.115 20.95715,14.692 0.97714,-0.9771 1.20684,-1.8938 0.61007,-2.4347 z m -258.24436,-34.1006 c -0.62459,-1.6885 -14.38521,-12.6351 -66.46278,-52.8716 -6.09616,-4.71 -10.75,-7.688 -10.75,-6.8789 0,1.0987 76.23843,61.7043 77.6206,61.7043 0.17323,0 -0.0103,-0.8792 -0.40782,-1.9538 z m 27.6802,-26.8693 C 259.50184,1224.2491 269,1212.4366 269,1211.9269 269,1211.4171 268.63244,1211 268.18319,1211 266.68189,1211 224,1262.8101 224,1264.6325 c 0,2.3389 -1.39356,3.8819 23.89298,-26.4556 z m -127.49659,7.9971 c -0.42227,-7.9986 -1.11831,-13.2373 -1.79327,-13.4966 -1.53505,-0.5899 -0.82289,25.5556 0.72231,26.5182 0.61416,0.3826 1.26165,0.5507 1.43887,0.3734 0.17723,-0.1772 0.0117,-6.2049 -0.36791,-13.395 z m 113.9413,-19.5208 c 8.33927,-9.8157 15.7645,-18.6804 16.50051,-19.6991 1.24051,-1.7171 0.31438,-2.3653 -12.68556,-8.8776 -7.71307,-3.8639 -23.49608,-12.8868 -35.07335,-20.0509 C 191.50202,1170.8615 181.67876,1165 181.24983,1165 c -1.27227,0 -28.4561,32.8822 -28.08772,33.9755 0.18584,0.5516 14.28789,11.9855 31.33789,25.4087 l 31,24.4057 1.83769,-2.145 c 1.01074,-1.1797 8.66074,-10.176 17,-19.9917 z m 4.00511,4.2683 c 15.97441,-18.7497 18.23227,-21.6798 17.3704,-22.5416 -0.64474,-0.6448 -4.16024,3.1701 -15.77674,17.1201 -4.57997,5.5 -10.28954,12.2142 -12.68792,14.9205 -5.17531,5.8397 -7.12107,9.0346 -5.09565,8.3667 0.74091,-0.2442 8.02637,-8.2838 16.18991,-17.8657 z m 149.64189,-2.0367 c 0.0265,-1.0664 -56.92628,-48.3848 -58.23635,-48.3848 -0.68659,0 -1.24834,0.5731 -1.24834,1.2736 0,0.7005 13.05,12.2223 29,25.6041 26.21406,21.9931 30.39909,24.9457 30.48469,21.5071 z m -85.51383,-24.1656 c 9.5206,-11.4645 9.73546,-11.8337 8.00124,-13.75 -0.98014,-1.0831 -2.27483,-1.9462 -2.87709,-1.918 -0.94104,0.044 -13.28031,14.0874 -18.96812,21.5878 -1.84767,2.4365 -1.84174,2.5034 0.43676,4.9287 1.27042,1.3524 2.60552,2.1153 2.96688,1.6955 0.36136,-0.4197 5.0595,-6.0646 10.44033,-12.544 z m -16.935,3.0819 c 3.28028,-3.9594 10.18366,-12.3969 15.34085,-18.75 5.15719,-6.3531 9.95425,-12.2261 10.66013,-13.0511 1.06964,-1.2501 0.91061,-1.7777 -0.95473,-3.167 -2.18679,-1.6287 -2.33116,-1.5483 -6.29023,3.5 -2.22863,2.8419 -9.7354,11.8767 -16.6817,20.0775 -11.98344,14.1476 -12.54446,15.0046 -10.96492,16.75 0.91559,1.0117 1.94861,1.8395 2.29558,1.8395 0.34698,0 3.31474,-3.2395 6.59502,-7.1989 z m 2.975,-18.0824 c 8.66789,-10.3298 15.48477,-19.0564 15.14863,-19.3925 -1.00218,-1.0022 -3.02954,1.1455 -18.62052,19.7255 -12.85146,15.3153 -16.04967,19.9291 -12.97594,18.7191 0.37842,-0.1489 7.77994,-8.7224 16.44783,-19.0521 z M 282,1179.0372 c 12.375,-14.7789 22.64844,-27.9207 22.82986,-29.204 0.43924,-3.1069 1.50412,-4.272 -25.19794,27.5701 -19.92697,23.7629 -23.55143,28.7324 -20.8229,28.5507 0.38004,-0.025 10.81598,-12.1379 23.19098,-26.9168 z M 164.90926,1178 c 7.19499,-8.525 13.08382,-15.8375 13.08627,-16.25 0.0124,-2.0791 -2.43432,0.069 -9.61382,8.4392 C 153.07998,1188.0294 150,1191.9643 150,1193.6733 c 0,2.125 -0.99605,3.1721 14.90926,-15.6733 z m 158.43985,-3.2666 c -3.32197,-2.9168 -3.50365,-2.9595 -4.814,-1.1323 -0.74895,1.0444 -2.68995,3.6603 -4.31332,5.8131 l -2.95159,3.9141 2.6149,2.2753 2.6149,2.2752 5.15068,-5.0571 5.15068,-5.0572 z m -153.20015,-17.8383 c 10.64307,-12.7077 22.72604,-27.2519 26.85104,-32.3204 4.125,-5.0685 10.7625,-12.8992 14.75,-17.4014 3.9875,-4.5023 7.25,-8.5964 7.25,-9.098 0,-0.8432 -53.21101,-46.2146 -54.96473,-46.8667 -0.43099,-0.1603 -5.22164,5.0147 -10.64588,11.5 -5.42425,6.4853 -13.72887,16.2914 -18.45471,21.7914 -4.72585,5.5 -15.67012,18.5118 -24.32062,28.9152 -15.150589,18.2205 -15.661804,18.981 -13.921112,20.7085 1.49673,1.4853 53.488022,45.635 53.956012,45.818 0.0819,0.032 8.85692,-10.3389 19.5,-23.0466 z m 40.75557,-33.7638 c 14.88672,-17.8028 26.79498,-32.8085 26.46279,-33.346 -0.7884,-1.2756 1.04935,-3.3497 -30.71198,34.6619 -15.1413,18.1209 -27.27832,33.3538 -26.97114,33.8508 0.76999,1.2459 0.8052,1.2063 31.22033,-35.1667 z M 231.74998,622.25 c -0.14096,-85.6625 -0.25629,-15.575 -0.25629,155.75 0,171.325 0.11533,241.4125 0.25629,155.75 0.14096,-85.6625 0.14096,-225.8375 0,-311.5 z m 2,-0.5 c -0.14097,-85.3875 -0.25631,-15.525 -0.25631,155.25 0,170.775 0.11534,240.6375 0.25631,155.25 0.14097,-85.3875 0.14097,-225.1125 0,-310.5 z M 240,777 c 0,-274.88889 -0.16989,-310 -1.5,-310 -1.3301,0 -1.5,35.0463 -1.5,309.41667 0,246.59763 0.25378,309.51903 1.25,309.92103 0.6875,0.2774 1.3625,0.5399 1.5,0.5834 C 239.8875,1086.9645 240,947.5 240,777 Z m 1.74998,-155.25 c -0.14097,-85.3875 -0.25631,-15.525 -0.25631,155.25 0,170.775 0.11534,240.6375 0.25631,155.25 0.14097,-85.3875 0.14097,-225.1125 0,-310.5 z m -6,0.081 C 235.60901,536.39893 235.49366,606 235.49366,776.5 c -1e-5,170.5 0.11533,240.3989 0.25631,155.33095 0.14098,-85.06798 0.14099,-224.56798 1e-5,-310 z M 235,399.5 c 0,-42.33333 -0.34367,-64.5 -1,-64.5 -0.65633,0 -1,22.16667 -1,64.5 0,42.33333 0.34367,64.5 1,64.5 0.65633,0 1,-22.16667 1,-64.5 z m 1787,53 c 0,-9.55556 -0.2536,-11.5 -1.5,-11.5 -1.2464,0 -1.5,1.94444 -1.5,11.5 0,9.55556 0.2536,11.5 1.5,11.5 1.2464,0 1.5,-1.94444 1.5,-11.5 z m -4.2512,-73.25 c -0.1615,-10.8625 -0.2936,-1.975 -0.2936,19.75 0,21.725 0.1321,30.6125 0.2936,19.75 0.1614,-10.8625 0.1614,-28.6375 0,-39.5 z M 2022,399.5 c 0,-32.22064 -0.2038,-37.36422 -1.5,-37.86163 -1.3173,-0.50549 -1.5,4.10605 -1.5,37.86163 0,33.75558 0.1827,38.36712 1.5,37.86163 1.2962,-0.49741 1.5,-5.64099 1.5,-37.86163 z M 231.74838,380.18418 c -0.16239,-10.2763 -0.29502,-1.58418 -0.29473,19.31582 3e-4,20.9 0.13317,29.30788 0.29527,18.68418 0.1621,-10.6237 0.16186,-27.7237 -5.4e-4,-38 z M 2022,346.5 c 0,-9.55556 -0.2536,-11.5 -1.5,-11.5 -1.241,0 -1.5,1.87037 -1.5,10.83333 0,5.95834 0.3,11.13334 0.6667,11.5 C 2021.5315,359.19815 2022,357.02289 2022,346.5 Z M 240.375,322.875 c 0.34375,-1.71875 0.62558,-5.20625 0.62629,-7.75 0.002,-6.262 4.2376,-23.32292 8.15395,-32.84208 11.08557,-26.9448 35.31576,-50.96814 62.43755,-61.90453 9.62717,-3.88199 27.07622,-8.37515 32.53221,-8.3771 4.94093,-0.002 9.875,-1.06417 9.875,-2.12629 0,-1.80542 -13.87751,-0.83129 -23.79865,1.67055 -32.40262,8.17104 -56.77355,25.57006 -74.69699,53.32803 -8.71936,13.50365 -15.5812,32.75148 -17.02027,47.74277 -0.31063,3.23601 -0.77695,7.57115 -1.03626,9.63365 -0.59642,4.74391 1.99282,5.29676 2.92717,0.625 z m 1776.1226,-5.625 c -0.894,-11.47032 -3.6297,-22.45937 -8.634,-34.68098 -14.3518,-35.05063 -43.0496,-60.13847 -80.3636,-70.25449 -10.3837,-2.81509 -27.5,-4.49436 -27.5,-2.69802 0,1.26923 4.5077,2.38349 9.6424,2.38349 5.9895,0 22.5753,4.10369 32.3576,8.00597 28.5791,11.40058 50.3201,32.85745 63.3583,62.53035 3.9547,9.00028 7.0722,21.97657 8.1595,33.96368 0.7777,8.57276 1.0344,9.5 2.631,9.5 0.6811,0 0.7994,-2.96823 0.3488,-8.75 z M 528.25,212.25016 c -31.4875,-0.1466 -83.0125,-0.1466 -114.5,0 -31.4875,0.1466 -5.725,0.26655 57.25,0.26655 62.975,0 88.7375,-0.11995 57.25,-0.26655 z m 184.07479,2.1e-4 c -22.64636,-0.14984 -59.99636,-0.1499 -83,-1.3e-4 -23.00363,0.14977 -4.47479,0.27236 41.17521,0.27243 45.65,7e-5 64.47116,-0.12246 41.82479,-0.2723 z m 600.84391,-3.6e-4 c -102.4823,-0.1404 -269.8823,-0.1404 -372.00004,1e-5 -102.11776,0.14041 -18.26866,0.25529 186.33134,0.25528 204.6,0 288.1509,-0.11488 185.6687,-0.25529 z m 313.1561,3.6e-4 c -22.6464,-0.14984 -59.9964,-0.1499 -83,-1.3e-4 -23.0036,0.14977 -4.4748,0.27236 41.1752,0.27243 45.65,7e-5 64.4712,-0.12246 41.8248,-0.2723 z m 214.5022,-1.7e-4 c -31.1701,-0.14666 -82.4701,-0.14669 -114,-7e-5 -31.5298,0.14662 -6.027,0.26661 56.673,0.26665 62.7,3e-5 88.4972,-0.11992 57.327,-0.26658 z M 584.75003,209.75 C 584.42066,208.76182 560.62957,208.44674 471.1667,208.24573 370.9852,208.02063 358,208.16406 358,209.49573 358,210.82593 371.14366,211 471.58333,211 c 90.42221,0 113.49838,-0.25489 113.1667,-1.25 z M 753,209.5 c 0,-1.32121 -9.83333,-1.5 -82.5,-1.5 -72.66667,0 -82.5,0.17879 -82.5,1.5 0,1.32121 9.83333,1.5 82.5,1.5 72.66667,0 82.5,-0.17879 82.5,-1.5 z m 746,0 c 0,-1.33064 -41.9444,-1.5 -371.5,-1.5 -329.55556,0 -371.5,0.16936 -371.5,1.5 0,1.33064 41.94444,1.5 371.5,1.5 329.5556,0 371.5,-0.16936 371.5,-1.5 z m 168,0 c 0,-1.32121 -9.8333,-1.5 -82.5,-1.5 -72.6667,0 -82.5,0.17879 -82.5,1.5 0,1.32121 9.8333,1.5 82.5,1.5 72.6667,0 82.5,-0.17879 82.5,-1.5 z m 230,0 c 0,-1.32452 -13.2778,-1.5 -113.5,-1.5 -100.2222,0 -113.5,0.17548 -113.5,1.5 0,1.32452 13.2778,1.5 113.5,1.5 100.2222,0 113.5,-0.17548 113.5,-1.5 z M 527.75,206.25017 c -31.2125,-0.14668 -82.2875,-0.14668 -113.5,0 -31.2125,0.14667 -5.675,0.26668 56.75,0.26668 62.425,0 87.9625,-0.12001 56.75,-0.26668 z m 184.57479,2e-4 c -22.64636,-0.14984 -59.99636,-0.1499 -83,-1.3e-4 -23.00363,0.14977 -4.47479,0.27236 41.17521,0.27243 45.65,7e-5 64.47116,-0.12246 41.82479,-0.2723 z m 600.84391,-3.6e-4 c -102.4823,-0.1404 -269.8823,-0.1404 -372.00004,1e-5 -102.11776,0.14041 -18.26866,0.25529 186.33134,0.25528 204.6,0 288.1509,-0.11488 185.6687,-0.25529 z m 313.1561,3.6e-4 c -22.6464,-0.14984 -59.9964,-0.1499 -83,-1.3e-4 -23.0036,0.14977 -4.4748,0.27236 41.1752,0.27243 45.65,7e-5 64.4712,-0.12246 41.8248,-0.2723 z m 214.4252,-2e-4 c -31.2125,-0.14668 -82.2875,-0.14668 -113.5,0 -31.2125,0.14667 -5.675,0.26668 56.75,0.26668 62.425,0 87.9625,-0.12001 56.75,-0.26668 z m -1313,-2 c -31.2125,-0.14668 -82.2875,-0.14668 -113.5,0 -31.2125,0.14667 -5.675,0.26668 56.75,0.26668 62.425,0 87.9625,-0.12001 56.75,-0.26668 z m 785.4187,-1.6e-4 c -102.4823,-0.1404 -269.8823,-0.1404 -372.00004,1e-5 -102.11776,0.14041 -18.26866,0.25529 186.33134,0.25528 204.6,0 288.1509,-0.11488 185.6687,-0.25529 z m 527.5813,1.6e-4 c -31.2125,-0.14668 -82.2875,-0.14668 -113.5,0 -31.2125,0.14667 -5.675,0.26668 56.75,0.26668 62.425,0 87.9625,-0.12001 56.75,-0.26668 z"
     id="path1" />
</svg>
